<?xml version="1.0" encoding="UTF-8" standalone="yes"?>
<!DOCTYPE svg PUBLIC "-//W3C//DTD SVG 1.1//EN" "http://www.w3.org/Graphics/SVG/1.1/DTD/svg11.dtd">

<svg width="500" height="500" viewBox="0 0 500 500" xmlns="http://www.w3.org/2000/svg" xmlns:xlink="http://www.w3.org/1999/xlink" version="1.1" baseProfile="full">
    <g transform="scale(1,-1) translate(0,-500)">
        <path d="M 1.633703 293.032515 L 144.970381 293.594619 C 150.573061 293.707034 155.839906 290.072085 155.482823 284.038841 L 155.482823 13.666510 C 154.939101 5.976221 150.816272 1.775711 142.159858 1.388064 L 1.633703 1.388064 Z" transform="scale(1.000000,1.000000) translate(282.000000,101.000000)" fill="#e05647" opacity="1.000000"></path>
        <path d="M 1.130310 1.302858 L 73.084228 1.302858 C 73.084228 1.302858 73.084228 1.302858 73.084228 1.302858 L 73.084228 29.277556 C 73.084228 30.924401 71.749196 32.259431 70.102353 32.259431 L 1.130310 32.259431 C 1.130310 32.259431 1.130310 32.259431 1.130310 32.259431 L 1.130310 1.302858 C 1.130310 1.302858 1.130310 1.302858 1.130310 1.302858 Z" transform="scale(1.000000,1.000000) translate(334.000000,311.000000)" fill="#f5ffc8" opacity="1.000000"></path>
        <path d="M 1.130311 1.942491 L 73.084228 1.942491 C 73.084228 1.942491 73.084228 1.942491 73.084228 1.942491 L 73.084228 29.917190 C 73.084228 31.564033 71.749196 32.899065 70.102353 32.899065 L 1.130311 32.899065 C 1.130311 32.899065 1.130311 32.899065 1.130311 32.899065 L 1.130311 1.942491 C 1.130311 1.942491 1.130311 1.942491 1.130311 1.942491 Z" transform="scale(1.000000,1.000000) translate(334.000000,256.000000)" fill="#ffffff" opacity="1.000000"></path>
        <path d="M 1.130311 1.388916 L 73.084228 1.388916 C 73.084228 1.388916 73.084228 1.388916 73.084228 1.388916 L 73.084228 29.363615 C 73.084228 31.010460 71.749196 32.345490 70.102353 32.345490 L 1.130311 32.345490 C 1.130311 32.345490 1.130311 32.345490 1.130311 32.345490 L 1.130311 1.388916 C 1.130311 1.388916 1.130311 1.388916 1.130311 1.388916 Z" transform="scale(1.000000,1.000000) translate(334.000000,206.000000)" fill="#f9f9f9" opacity="1.000000"></path>
        <path d="M 1.130311 1.666012 L 73.084228 1.666012 C 73.084228 1.666012 73.084228 1.666012 73.084228 1.666012 L 73.084228 29.640710 C 73.084228 31.287554 71.749196 32.622587 70.102353 32.622587 L 1.130311 32.622587 C 1.130311 32.622587 1.130311 32.622587 1.130311 32.622587 L 1.130311 1.666012 C 1.130311 1.666012 1.130311 1.666012 1.130311 1.666012 Z" transform="scale(1.000000,1.000000) translate(334.000000,157.000000)" fill="#f9f9f9" opacity="1.000000"></path>
        <path d="M 1.771487 1.302858 L 73.725400 1.302858 C 73.725400 1.302858 73.725400 1.302858 73.725400 1.302858 L 73.725400 29.277556 C 73.725400 30.924401 72.390375 32.259431 70.743524 32.259431 L 1.771487 32.259431 C 1.771487 32.259431 1.771487 32.259431 1.771487 32.259431 L 1.771487 1.302858 C 1.771487 1.302858 1.771487 1.302858 1.771487 1.302858 Z" transform="scale(1.000000,1.000000) translate(240.000000,311.000000)" fill="#f9f9f9" opacity="1.000000"></path>
        <path d="M 1.071277 1.942491 L 73.025190 1.942491 C 73.025190 1.942491 73.025190 1.942491 73.025190 1.942491 L 73.025190 29.917190 C 73.025190 31.564033 71.690158 32.899065 70.043315 32.899065 L 1.071277 32.899065 C 1.071277 32.899065 1.071277 32.899065 1.071277 32.899065 L 1.071277 1.942491 C 1.071277 1.942491 1.071277 1.942491 1.071277 1.942491 Z" transform="scale(1.000000,1.000000) translate(241.000000,256.000000)" fill="#f9f9f9" opacity="1.000000"></path>
        <path d="M 1.071277 1.388916 L 73.025190 1.388916 C 73.025190 1.388916 73.025190 1.388916 73.025190 1.388916 L 73.025190 29.363615 C 73.025190 31.010460 71.690158 32.345490 70.043315 32.345490 L 1.071277 32.345490 C 1.071277 32.345490 1.071277 32.345490 1.071277 32.345490 L 1.071277 1.388916 C 1.071277 1.388916 1.071277 1.388916 1.071277 1.388916 Z" transform="scale(1.000000,1.000000) translate(241.000000,206.000000)" fill="#f5ffc8" opacity="1.000000"></path>
        <path d="M 1.071277 1.613993 L 73.025190 1.613993 C 73.025190 1.613993 73.025190 1.613993 73.025190 1.613993 L 73.025190 29.588691 C 73.025190 31.235535 71.690158 32.570568 70.043315 32.570568 L 1.071277 32.570568 C 1.071277 32.570568 1.071277 32.570568 1.071277 32.570568 L 1.071277 1.613993 C 1.071277 1.613993 1.071277 1.613993 1.071277 1.613993 Z" transform="scale(1.000000,1.000000) translate(241.000000,156.000000)" fill="#ffffff" opacity="1.000000"></path>
        <path d="M 3.748419 333.156725 L 1.500000 44.322796 L 222.633715 1.632801 L 222.071610 374.367203 Z" transform="scale(1.000000,1.000000) translate(61.000000,62.000000)" fill="#973a2f" opacity="1.000000"></path>
        <path d="M 63.455711 169.035172 C 97.657182 168.210594 144.802531 109.469314 112.088081 38.143902 L 123.233943 21.849209 L 108.363739 1.647213 L 97.062380 16.489495 C 70.593412 -2.338214 44.989502 -3.496944 20.899768 17.529622 C 22.285614 4.831613 11.578738 -3.424641 4.031767 4.475813 C -0.716356 14.531829 1.893718 27.595675 12.653923 27.360083 L 4.272298 41.638917 L 14.978846 55.656630 C 29.882095 33.118350 49.675990 20.612352 81.993902 36.279207 L 41.769219 92.663809 L 30.137755 76.696320 L 12.869858 100.875083 L 43.784032 143.113675 C 52.224820 140.072741 56.899246 142.274264 62.549925 148.458537 L 72.066856 135.012192 L 57.210229 113.985632 L 96.962198 58.474137 C 113.621020 96.790308 95.575348 153.388426 63.455711 169.259425 Z" transform="scale(1.000000,1.000000) translate(101.000000,174.000000)" fill="#f5ffc8" opacity="1.000000"></path>
    </g>
</svg>